<svg width="17" height="16" viewBox="0 0 17 16" fill="none" xmlns="http://www.w3.org/2000/svg">
<path d="M14.8653 0.5L15.7379 1.51124C13.319 3.97293 12.1096 5.93922 12.1096 7.41011C12.1096 7.49183 12.1096 7.57354 12.1096 7.65526C12.1096 8.61542 12.5893 9.20276 13.5487 9.41726C14.008 9.53984 14.3193 9.64198 14.4825 9.7237C15.6563 9.97906 16.2635 10.7962 16.3043 12.1752C16.3043 12.2978 16.3043 12.4254 16.3043 12.5582C16.3043 13.2222 16.0747 13.8453 15.6154 14.4275C15.0745 15.1425 14.258 15.5 13.166 15.5C10.7471 15.5 9.53766 13.8248 9.53766 10.4745C9.53766 10.3519 9.53766 10.2293 9.53766 10.1067C9.61931 6.51124 11.3952 3.30899 14.8653 0.5ZM5.26638 0.5L6.21556 1.51124C3.74566 4.01379 2.51072 6.0618 2.51072 7.65526C2.55154 8.61542 3.05164 9.20276 4.01102 9.41726C4.42948 9.49898 4.72545 9.60112 4.89896 9.7237C6.10329 10.0199 6.72586 10.8371 6.76669 12.1752C6.76669 12.2978 6.76669 12.4254 6.76669 12.5582C6.76669 13.2222 6.53705 13.8453 6.07777 14.4275C5.49602 15.1425 4.68463 15.5 3.6436 15.5C2.42907 15.5 1.50541 14.9586 0.872627 13.8759C0.290876 12.9464 0 11.8585 0 10.6124C0 10.4387 0 10.2702 0 10.1067C0.122474 6.46016 1.87793 3.25792 5.26638 0.5Z" fill="black"/>
</svg>
