<svg width="24" height="23" viewBox="0 0 24 23" fill="none" xmlns="http://www.w3.org/2000/svg">
<path d="M23 22.5007V23.0007H23.5V22.5007H23ZM1 22.5007H0.5V23.0007H1V22.5007ZM1 0.500671V0.000671387H0.5V0.500671H1ZM23.5 0.500671C23.5 0.224529 23.2761 0.000671387 23 0.000671387H18.5C18.2239 0.000671387 18 0.224529 18 0.500671C18 0.776814 18.2239 1.00067 18.5 1.00067H22.5V5.00067C22.5 5.27681 22.7239 5.50067 23 5.50067C23.2761 5.50067 23.5 5.27681 23.5 5.00067V0.500671ZM23 22.0007H1V23.0007H23V22.0007ZM1.5 22.5007V0.500671H0.5V22.5007H1.5ZM22.5 11.5007V22.5007H23.5V11.5007H22.5ZM1 1.00067H12V0.000671387H1V1.00067ZM10.3536 13.8542L23.3536 0.854225L22.6464 0.147118L9.64645 13.1471L10.3536 13.8542Z" fill="#A0A0A0"/>
</svg>
